{
  "asset": {
    "version": "2.0",
    "generator": "THREE.GLTFExporter"
  },
  "scenes": [
    {
      "name": "Scene",
      "nodes": [
        4
      ]
    }
  ],
  "scene": 0,
  "nodes": [
    {
      "name": "Elephant1:desierfx_me_00 group3 group2",
      "mesh": 0
    },
    {
      "name": "group3 group2 Elephant1:desierfx_me_01",
      "mesh": 1
    },
    {
      "name": "group3 group2 Elephant1:desierfx_me_02",
      "mesh": 2
    },
    {
      "name": "group3 group2 Elephant1:desierfx_me_03",
      "mesh": 3
    },
    {
      "name": "OriginalFile.obj",
      "children": [
        0,
        1,
        2,
        3
      ]
    }
  ],
  "bufferViews": [
    {
      "buffer": 0,
      "byteOffset": 0,
      "byteLength": 173088,
      "target": 34962,
      "byteStride": 12
    },
    {
      "buffer": 0,
      "byteOffset": 173088,
      "byteLength": 173088,
      "target": 34962,
      "byteStride": 12
    },
    {
      "buffer": 0,
      "byteOffset": 346176,
      "byteLength": 115392,
      "target": 34962,
      "byteStride": 8
    },
    {
      "buffer": 0,
      "byteOffset": 461568,
      "byteLength": 61920,
      "target": 34962,
      "byteStride": 12
    },
    {
      "buffer": 0,
      "byteOffset": 523488,
      "byteLength": 61920,
      "target": 34962,
      "byteStride": 12
    },
    {
      "buffer": 0,
      "byteOffset": 585408,
      "byteLength": 41280,
      "target": 34962,
      "byteStride": 8
    },
    {
      "buffer": 0,
      "byteOffset": 626688,
      "byteLength": 828000,
      "target": 34962,
      "byteStride": 12
    },
    {
      "buffer": 0,
      "byteOffset": 1454688,
      "byteLength": 828000,
      "target": 34962,
      "byteStride": 12
    },
    {
      "buffer": 0,
      "byteOffset": 2282688,
      "byteLength": 552000,
      "target": 34962,
      "byteStride": 8
    },
    {
      "buffer": 0,
      "byteOffset": 2834688,
      "byteLength": 76896,
      "target": 34962,
      "byteStride": 12
    },
    {
      "buffer": 0,
      "byteOffset": 2911584,
      "byteLength": 76896,
      "target": 34962,
      "byteStride": 12
    },
    {
      "buffer": 0,
      "byteOffset": 2988480,
      "byteLength": 51264,
      "target": 34962,
      "byteStride": 8
    }
  ],
  "buffers": [
    {
      "byteLength": 3039744,
      "uri": "data:application/octet-stream;base64,"
    }
  ],
  "accessors": [
    {
      "bufferView": 0,
      "componentType": 5126,
      "count": 14424,
      "max": [
        26.358213424682617,
        168.73138427734375,
        110.11038970947266
      ],
      "min": [
        -26.357654571533203,
        162.0134735107422,
        99.65666961669922
      ],
      "type": "VEC3"
    },
    {
      "bufferView": 1,
      "componentType": 5126,
      "count": 14424,
      "max": [
        0.9906449913978577,
        0.9999819993972778,
        0.9995149970054626
      ],
      "min": [
        -0.9623540043830872,
        -0.9999819993972778,
        -0.9995149970054626
      ],
      "type": "VEC3"
    },
    {
      "bufferView": 2,
      "componentType": 5126,
      "count": 14424,
      "max": [
        0.65625,
        0.6884400248527527
      ],
      "min": [
        0.34375,
        0
      ],
      "type": "VEC2"
    },
    {
      "bufferView": 3,
      "componentType": 5126,
      "count": 5160,
      "max": [
        25.781673431396484,
        168.5835418701172,
        110.00946807861328
      ],
      "min": [
        -26.26077651977539,
        165.18948364257812,
        99.67278289794922
      ],
      "type": "VEC3"
    },
    {
      "bufferView": 4,
      "componentType": 5126,
      "count": 5160,
      "max": [
        0.944786012172699,
        0.9998360276222229,
        0.9890000224113464
      ],
      "min": [
        -0.9349489808082581,
        -0.9998149871826172,
        -0.9923120141029358
      ],
      "type": "VEC3"
    },
    {
      "bufferView": 5,
      "componentType": 5126,
      "count": 5160,
      "max": [
        0.625,
        0.6884400248527527
      ],
      "min": [
        0.375,
        0.3125
      ],
      "type": "VEC2"
    },
    {
      "bufferView": 6,
      "componentType": 5126,
      "count": 69000,
      "max": [
        72.0425796508789,
        214.541259765625,
        143.3263397216797
      ],
      "min": [
        -72.04258728027344,
        -9.277888298034668,
        -188.7978973388672
      ],
      "type": "VEC3"
    },
    {
      "bufferView": 7,
      "componentType": 5126,
      "count": 69000,
      "max": [
        0.9998189806938171,
        0.9999899864196777,
        0.9999949932098389
      ],
      "min": [
        -0.9998189806938171,
        -0.9999989867210388,
        -0.999671995639801
      ],
      "type": "VEC3"
    },
    {
      "bufferView": 8,
      "componentType": 5126,
      "count": 69000,
      "max": [
        0.9836410284042358,
        0.997169017791748
      ],
      "min": [
        0.004209999926388264,
        0.004707000218331814
      ],
      "type": "VEC2"
    },
    {
      "bufferView": 9,
      "componentType": 5126,
      "count": 6408,
      "max": [
        29.81317138671875,
        172.02101135253906,
        188.79830932617188
      ],
      "min": [
        -29.81256866455078,
        73.33509826660156,
        98.21847534179688
      ],
      "type": "VEC3"
    },
    {
      "bufferView": 10,
      "componentType": 5126,
      "count": 6408,
      "max": [
        0.9967399835586548,
        0.9879840016365051,
        0.9941220283508301
      ],
      "min": [
        -0.9967399835586548,
        -0.9974870085716248,
        -0.9358710050582886
      ],
      "type": "VEC3"
    },
    {
      "bufferView": 11,
      "componentType": 5126,
      "count": 6408,
      "max": [
        1.0012320280075073,
        0.9532809853553772
      ],
      "min": [
        -0.05985499918460846,
        0.6411309838294983
      ],
      "type": "VEC2"
    }
  ],
  "materials": [
    {
      "pbrMetallicRoughness": {
        "metallicFactor": 0.5,
        "roughnessFactor": 0.5
      },
      "name": "lambert2SG"
    },
    {
      "pbrMetallicRoughness": {
        "metallicFactor": 0.5,
        "roughnessFactor": 0.5
      },
      "name": "lambert2SG"
    }
  ],
  "meshes": [
    {
      "primitives": [
        {
          "mode": 4,
          "attributes": {
            "POSITION": 0,
            "NORMAL": 1,
            "TEXCOORD_0": 2
          },
          "material": 0
        }
      ]
    },
    {
      "primitives": [
        {
          "mode": 4,
          "attributes": {
            "POSITION": 3,
            "NORMAL": 4,
            "TEXCOORD_0": 5
          },
          "material": 1
        }
      ]
    },
    {
      "primitives": [
        {
          "mode": 4,
          "attributes": {
            "POSITION": 6,
            "NORMAL": 7,
            "TEXCOORD_0": 8
          },
          "material": 1
        }
      ]
    },
    {
      "primitives": [
        {
          "mode": 4,
          "attributes": {
            "POSITION": 9,
            "NORMAL": 10,
            "TEXCOORD_0": 11
          },
          "material": 0
        }
      ]
    }
  ]
}